<?xml version="1.0" standalone="no"?>
<!DOCTYPE svg PUBLIC "-//W3C//DTD SVG 20010904//EN"
 "http://www.w3.org/TR/2001/REC-SVG-20010904/DTD/svg10.dtd">
<svg version="1.0" xmlns="http://www.w3.org/2000/svg"
 width="1024.000000pt" height="1024.000000pt" viewBox="0 0 1024.000000 1024.000000"
 preserveAspectRatio="xMidYMid meet">

<g transform="translate(0.000000,1024.000000) scale(0.100000,-0.100000)"
fill="#000000" stroke="none">
<path d="M3803 9255 c-87 -61 -199 -345 -255 -645 -29 -156 -35 -424 -13 -564
31 -198 103 -379 202 -507 l52 -69 -27 -25 c-35 -33 -137 -91 -196 -111 -25
-9 -46 -19 -46 -23 0 -4 11 -18 25 -31 32 -30 31 -36 -2 -44 -85 -19 -157 -42
-160 -52 -2 -6 7 -24 19 -39 16 -20 23 -44 24 -75 1 -55 56 -175 107 -235 19
-22 38 -55 42 -74 7 -31 5 -33 -11 -26 -11 4 -41 15 -67 24 -34 12 -60 31 -89
64 -76 89 -189 125 -290 92 -29 -9 -61 -24 -71 -33 -16 -14 -20 -12 -52 26
-93 108 -256 124 -370 38 l-31 -24 -28 54 c-22 42 -42 63 -85 89 -92 57 -122
68 -188 68 -111 1 -211 -71 -269 -193 -77 -161 57 -360 243 -360 18 0 33 -3
33 -7 0 -5 -15 -35 -33 -68 -24 -46 -44 -67 -82 -90 -75 -45 -155 -127 -155
-158 0 -14 11 -61 24 -104 13 -43 34 -112 46 -153 12 -41 44 -129 71 -196 l49
-121 -22 -49 c-43 -98 -24 -207 61 -336 95 -146 220 -226 333 -216 43 5 58 1
88 -18 19 -13 62 -34 95 -46 55 -21 77 -23 245 -22 152 0 204 4 295 23 142 29
229 55 310 91 l64 29 114 -29 c62 -16 161 -33 220 -38 58 -6 111 -13 117 -17
5 -3 10 -25 10 -47 l0 -41 47 7 c26 3 51 10 56 15 5 5 11 76 13 158 2 100 11
199 29 300 29 175 30 180 61 213 12 14 32 54 44 90 26 79 58 135 98 173 l29
28 114 -34 c118 -36 228 -62 234 -55 13 13 -83 64 -220 117 -247 95 -444 212
-615 364 -102 91 -150 150 -169 209 -17 53 -46 85 -96 107 -27 12 -52 33 -65
53 -26 43 -26 44 10 57 17 5 30 12 30 15 0 3 -18 15 -39 26 -56 28 -133 109
-170 180 l-32 60 53 0 c67 0 161 34 164 58 5 56 19 94 37 102 12 5 16 9 8 9
-12 1 -12 4 0 19 8 9 21 29 29 45 7 15 17 27 22 27 4 0 8 7 8 15 0 8 4 15 10
15 5 0 12 11 16 25 7 30 39 51 48 32 3 -6 3 -2 0 11 -3 12 -1 22 5 22 6 0 10
3 9 8 -4 12 24 72 34 72 6 0 7 7 4 16 -4 9 0 26 7 38 8 12 19 38 26 59 7 20
17 37 22 37 5 0 9 7 9 16 0 8 4 12 10 9 5 -3 7 0 4 8 -5 14 40 116 56 127 4 3
13 22 20 43 8 27 16 37 27 33 9 -4 13 -1 10 6 -6 19 12 50 25 42 7 -4 8 -3 4
4 -8 14 17 55 27 45 4 -3 7 1 7 10 0 23 93 131 153 177 29 22 58 45 65 51 32
26 183 100 193 94 6 -4 38 7 72 24 80 39 232 80 251 66 7 -6 39 -29 70 -53 32
-24 73 -50 91 -58 39 -16 191 -19 200 -4 3 6 -4 10 -17 10 -25 0 -82 33 -73
42 3 3 -1 8 -10 12 -9 3 -13 2 -10 -4 3 -6 -1 -7 -10 -4 -9 4 -14 13 -11 20 3
8 -1 14 -11 14 -13 0 -12 4 5 19 24 20 29 36 9 28 -15 -5 -48 65 -38 82 9 14
72 -30 66 -46 -2 -7 2 -10 11 -6 7 3 14 1 14 -5 0 -5 -7 -12 -15 -16 -8 -3
-15 -10 -15 -16 0 -6 7 -4 16 4 21 22 29 20 53 -10 12 -15 21 -23 21 -19 0 5
9 0 19 -9 38 -34 43 -6 8 43 -40 56 -80 195 -75 265 l3 47 100 -83 c56 -47
139 -131 190 -192 l91 -109 122 -58 c67 -32 134 -67 149 -78 14 -12 28 -19 31
-16 3 3 -3 12 -14 21 -10 8 -13 13 -6 9 14 -7 16 6 2 23 -7 9 -7 9 2 2 17 -14
25 -13 32 6 3 8 2 12 -4 9 -6 -3 -15 -3 -20 0 -14 9 69 87 83 78 7 -3 9 -3 5
2 -9 10 4 22 87 84 37 28 74 51 82 51 8 0 11 4 8 10 -4 6 1 7 11 3 12 -5 15
-3 9 6 -6 10 -3 11 15 1 15 -8 30 -9 52 -1 17 6 34 8 38 6 5 -3 11 -1 15 5 3
5 12 10 18 10 7 0 6 -4 -3 -10 -14 -9 -13 -11 11 -14 6 0 18 -20 26 -44 14
-41 13 -44 -9 -62 -13 -11 -26 -19 -30 -20 -5 0 -8 -4 -8 -10 0 -5 -15 -31
-34 -57 -19 -27 -55 -84 -81 -128 -26 -44 -48 -81 -50 -83 -1 -2 -24 11 -51
27 -72 46 -86 38 -28 -18 128 -124 217 -247 220 -301 0 -19 8 -60 17 -90 12
-40 14 -66 7 -95 -11 -49 -5 -59 9 -14 l11 34 -3 -32 c-4 -33 6 -44 17 -20 3
6 4 -6 1 -28 -4 -26 -2 -35 3 -26 7 9 11 4 16 -20 10 -46 16 -86 21 -139 3
-25 7 -50 10 -57 2 -6 0 -26 -5 -43 -7 -26 -7 -30 4 -21 11 9 15 -2 20 -54 4
-36 4 -70 1 -75 -4 -6 -1 -10 4 -10 12 0 15 -26 4 -33 -5 -2 -2 -2 5 -1 6 2
12 -6 12 -17 0 -11 4 -18 9 -15 10 7 25 -22 22 -41 -1 -7 5 -13 14 -13 9 0 15
-9 15 -22 0 -12 3 -18 6 -15 8 8 54 -43 54 -58 0 -5 -5 -3 -11 5 -9 12 -9 11
-4 -5 4 -11 10 -28 12 -37 3 -10 9 -16 13 -13 4 3 10 -4 13 -15 3 -11 2 -20
-1 -20 -4 0 -8 -12 -8 -26 -1 -14 0 -23 3 -21 2 3 15 -5 27 -17 13 -11 51 -38
85 -59 53 -33 72 -39 136 -44 41 -3 75 -9 75 -13 0 -4 -29 -35 -66 -69 -68
-65 -187 -131 -268 -152 -25 -6 -46 -14 -46 -18 0 -3 20 -14 45 -24 25 -11 45
-22 45 -26 0 -7 -92 -63 -156 -94 l-31 -16 -42 65 c-67 102 -178 164 -292 164
-56 0 -149 -32 -174 -60 -10 -11 -34 -24 -54 -30 -60 -16 -117 -65 -148 -128
-26 -52 -28 -66 -28 -170 1 -92 -2 -113 -15 -117 -40 -11 -296 -58 -379 -69
-52 -6 -96 -17 -98 -22 -5 -14 65 -24 158 -24 66 0 69 -1 75 -27 9 -36 -9
-120 -40 -185 -17 -36 -22 -55 -14 -59 6 -4 8 -14 5 -23 -4 -9 -2 -16 2 -16 5
0 12 6 14 13 4 9 6 9 6 0 1 -6 -8 -18 -20 -26 -12 -9 -16 -16 -9 -19 9 -3 6
-14 -7 -38 -25 -46 -47 -97 -38 -88 4 4 14 0 23 -8 10 -10 25 -14 42 -10 22 4
29 0 39 -20 14 -32 15 -76 1 -54 -8 12 -10 10 -10 -8 0 -15 4 -21 11 -16 6 3
15 0 20 -7 7 -9 8 -5 3 13 -3 15 -1 35 5 45 9 15 11 11 12 -22 1 -22 4 -67 5
-100 4 -71 26 -169 44 -190 7 -8 19 -15 26 -15 27 0 201 -62 279 -100 106 -51
204 -139 236 -214 22 -50 26 -54 49 -48 41 11 320 6 385 -7 33 -7 88 -21 122
-32 60 -20 64 -20 148 -3 69 14 101 15 168 7 65 -8 90 -7 122 4 110 39 290 53
440 34 51 -7 64 -5 88 12 54 37 167 190 222 302 67 132 89 216 110 412 18 177
36 256 75 337 54 114 136 186 283 250 43 19 81 37 84 40 12 12 -112 182 -192
262 -297 301 -728 392 -1120 237 -144 -57 -325 -183 -414 -287 -23 -28 -47
-55 -52 -60 -8 -9 -49 19 -49 33 0 3 24 19 53 35 28 16 76 49 105 73 43 37 52
50 52 77 0 29 5 35 40 51 97 44 258 250 230 295 -6 9 2 26 25 53 19 21 31 45
28 53 -3 8 -51 46 -107 84 -107 73 -219 167 -214 180 2 4 31 31 64 59 269 223
407 633 391 1156 -10 311 -79 593 -169 688 -35 37 -39 39 -80 32 -24 -4 -88
-24 -143 -45 -311 -117 -622 -294 -890 -506 -58 -46 -110 -84 -115 -84 -30 0
-141 62 -172 96 -97 105 -117 130 -118 136 0 3 -37 38 -82 78 -92 80 -209 160
-233 160 -40 0 -71 -156 -45 -226 6 -15 9 -29 7 -31 -2 -2 -26 11 -54 30 -52
35 -130 62 -199 70 -40 5 -42 4 -47 -27 -6 -38 6 -110 27 -161 16 -38 16 -38
-32 -48 -19 -4 -38 13 -116 107 -174 207 -390 399 -643 570 -190 128 -261 156
-310 121z m124 -267 c87 -144 186 -393 252 -636 l20 -74 -27 7 c-45 11 -133
66 -184 115 -27 26 -50 44 -53 41 -2 -4 0 -40 5 -81 7 -56 21 -97 53 -162 24
-49 39 -88 35 -88 -5 0 -34 16 -65 36 -30 19 -58 33 -61 30 -11 -12 61 -138
109 -191 l51 -55 -34 -52 c-58 -89 -118 -193 -118 -207 0 -51 -94 91 -141 213
-54 139 -72 243 -73 411 0 184 20 310 79 490 42 129 98 255 113 255 4 0 22
-24 39 -52z m3031 -285 c54 -164 67 -264 67 -513 l0 -235 -33 -120 c-62 -224
-132 -351 -267 -488 -41 -42 -79 -77 -84 -77 -4 0 -20 42 -35 94 -16 51 -38
119 -51 150 l-23 56 47 34 c61 46 102 89 143 156 33 51 62 120 53 120 -3 0
-26 -13 -52 -29 -46 -28 -131 -61 -155 -61 -7 0 6 19 28 43 22 23 53 59 68 80
36 49 92 171 101 220 l8 39 -50 -36 c-74 -53 -174 -97 -237 -103 l-56 -6 16
39 c63 150 197 379 299 510 90 115 176 207 186 197 4 -4 16 -36 27 -70z
m-2529 30 c-9 -11 -9 -12 3 -8 9 4 22 -4 32 -20 9 -14 21 -23 26 -20 8 5 60
-50 60 -65 0 -18 -26 -17 -47 2 -12 11 -26 17 -32 13 -14 -8 -15 -135 -1 -135
6 0 8 11 4 25 -5 20 -2 25 12 26 11 0 14 3 7 6 -7 2 -13 16 -13 29 0 25 0 25
24 7 13 -10 20 -20 16 -23 -5 -3 -12 -18 -15 -33 -6 -22 -4 -26 9 -21 9 3 16
1 16 -5 0 -8 6 -7 20 1 11 7 20 17 20 21 0 5 7 15 15 23 13 14 15 13 15 -5 0
-11 5 -23 10 -26 6 -3 10 -15 10 -25 0 -13 5 -18 16 -13 8 3 13 12 10 19 -7
19 -3 18 18 -8 15 -17 15 -20 3 -15 -9 3 -19 1 -23 -5 -4 -7 -3 -8 4 -4 7 4
12 3 12 -3 0 -6 6 -8 14 -5 7 3 16 -2 20 -11 3 -9 2 -13 -4 -10 -6 3 -10 2
-10 -4 0 -6 -12 -14 -27 -17 -16 -4 -34 -11 -40 -17 -9 -6 -13 -6 -13 2 0 6
10 16 23 21 13 5 16 9 6 9 -8 1 -20 -4 -26 -10 -17 -17 -37 -1 -22 17 11 13 9
13 -14 3 -29 -13 -36 -29 -12 -29 11 0 10 -6 -7 -25 -12 -14 -26 -25 -32 -25
-6 0 -2 7 8 15 18 14 18 15 2 15 -10 0 -20 -9 -23 -19 -3 -11 -11 -17 -18 -15
-7 3 -15 -2 -18 -10 -4 -9 -11 -16 -16 -16 -6 0 -7 7 -4 17 4 11 3 14 -5 9 -8
-5 -14 3 -18 23 -4 17 -11 31 -16 31 -6 0 -8 9 -5 20 3 11 2 18 -3 15 -4 -3
-11 2 -14 11 -4 10 -2 13 6 8 7 -4 1 8 -12 26 -16 23 -20 35 -12 38 7 2 12 13
12 24 0 11 -5 18 -12 15 -7 -2 -12 -10 -10 -16 1 -6 -2 -11 -8 -11 -5 0 -10 7
-10 15 0 8 -4 15 -10 15 -5 0 -13 12 -16 26 -5 18 -1 30 15 45 11 11 21 24 21
30 0 15 26 39 34 32 3 -4 6 3 6 13 0 29 20 46 37 32 10 -8 11 -14 2 -25z m595
-140 c36 -14 63 -30 60 -34 -2 -4 5 -10 16 -14 22 -7 26 -21 8 -28 -10 -3 -10
-7 1 -20 8 -11 9 -17 3 -17 -6 0 -9 -7 -6 -15 9 -21 -3 -19 -40 10 -18 14 -36
22 -39 18 -4 -3 -7 3 -7 14 0 16 5 19 26 15 19 -3 25 -1 20 7 -4 6 -14 11 -23
11 -10 0 -14 6 -10 20 3 13 0 20 -8 20 -7 0 -21 3 -29 6 -13 5 -15 2 -9 -12 6
-17 5 -17 -8 -4 -15 15 -32 50 -24 50 3 0 34 -12 69 -27z m-459 -12 c-3 -6
-11 -8 -17 -5 -6 4 -5 9 3 15 16 10 23 4 14 -10z m1731 -13 c4 -7 3 -8 -4 -4
-6 4 -22 2 -34 -4 -22 -11 -22 -10 -4 4 24 19 32 20 42 4z m-1219 -112 c15
-13 26 -26 23 -29 -3 -3 -21 8 -40 24 -19 16 -29 29 -23 29 7 0 25 -11 40 -24z
m-2697 -1399 c53 -28 62 -47 23 -47 l-28 -1 28 -15 c15 -8 27 -19 27 -25 0 -6
4 -8 9 -5 4 3 6 17 3 32 -4 24 -3 25 16 15 107 -57 103 -239 -8 -296 -37 -19
-101 -19 -145 -1 -19 8 -35 11 -35 6 0 -5 16 -14 35 -21 39 -15 40 -28 4 -46
-58 -30 -151 -4 -202 56 -35 42 -50 94 -45 155 4 42 13 62 53 115 76 100 171
128 265 78z m495 -131 c49 -22 105 -75 105 -99 0 -7 -9 -37 -21 -67 -15 -40
-19 -66 -14 -97 l6 -43 -58 -25 -58 -26 -15 23 c-36 56 -158 138 -207 138 -38
0 -46 14 -32 59 13 44 25 52 32 24 3 -13 5 -11 6 5 5 110 135 165 256 108z
m415 -76 c49 -25 98 -80 110 -121 31 -106 -8 -194 -102 -234 l-37 -15 -33 36
c-45 49 -105 83 -162 90 -38 6 -49 12 -57 31 -15 41 -11 99 11 124 16 20 19
21 20 7 0 -10 5 -18 10 -18 6 0 8 11 4 25 -8 32 16 61 71 87 47 21 108 17 165
-12z m258 -183 c37 -34 52 -71 52 -127 0 -53 -12 -86 -39 -107 -18 -14 -260
-97 -266 -92 -1 2 -5 23 -6 46 l-4 41 64 34 c79 40 111 92 116 185 2 32 4 59
4 60 3 7 60 -22 79 -40z m-917 1 c57 -19 109 -59 135 -103 29 -50 30 -73 5
-128 -11 -23 -22 -59 -26 -80 -9 -44 -43 -67 -100 -67 -20 0 -34 -4 -31 -9 12
-19 -36 -45 -93 -49 -71 -5 -126 21 -166 78 -51 73 -55 149 -13 218 22 35 38
34 38 -3 0 -13 5 -27 10 -30 6 -4 10 14 10 46 0 46 4 55 36 85 53 50 126 66
195 42z m1157 -74 c29 -12 55 -30 58 -38 13 -35 -77 -138 -152 -174 l-37 -17
7 -160 c4 -88 11 -239 17 -335 5 -96 11 -281 12 -410 l2 -235 -53 -28 c-29
-16 -58 -27 -65 -24 -8 3 -17 55 -25 153 -30 345 -90 945 -95 950 -2 3 -17 -2
-152 -44 l-60 -19 1 -39 c1 -22 9 -86 18 -144 97 -634 137 -903 133 -914 -5
-16 -155 -46 -165 -32 -5 6 -16 43 -24 81 -47 216 -221 990 -222 992 -3 3
-230 -29 -234 -33 -4 -3 53 -202 153 -539 15 -49 39 -135 55 -190 15 -55 42
-148 60 -208 18 -59 30 -113 27 -121 -4 -9 -24 -12 -78 -9 -41 2 -77 7 -82 12
-4 4 -41 106 -82 227 -41 120 -91 260 -111 309 -21 50 -70 182 -110 295 l-72
205 -103 7 c-57 4 -105 5 -107 3 -2 -2 28 -78 67 -169 39 -91 71 -170 71 -176
0 -5 -13 -10 -29 -10 -16 0 -36 -3 -45 -6 -11 -4 -36 36 -105 175 -50 99 -88
187 -85 195 4 10 -8 23 -35 40 -68 44 -69 93 -1 143 25 18 61 44 80 58 l34 26
23 -50 c12 -28 34 -66 49 -86 l26 -35 -55 0 c-67 0 -104 13 -109 36 -2 15 -7
13 -22 -11 -18 -27 -18 -29 0 -42 71 -52 392 -55 714 -8 199 30 452 90 585
140 173 65 326 157 302 182 -4 4 -28 -3 -53 -16 -26 -12 -48 -21 -49 -19 -1 2
-5 36 -8 76 l-6 72 42 -6 c23 -3 66 -17 95 -30z m-683 -60 c64 -30 100 -69
116 -124 18 -58 6 -87 -39 -99 -60 -16 -241 -51 -298 -57 -46 -6 -53 -4 -63
14 -15 28 -14 59 4 120 15 50 17 52 53 53 l37 1 -33 14 c-32 14 -33 16 -20 37
21 32 96 67 145 67 25 0 65 -11 98 -26z m4628 -108 c190 -57 351 -167 475
-324 23 -30 42 -59 42 -65 -1 -7 -35 -28 -77 -47 -184 -84 -301 -222 -347
-410 -21 -82 -119 -360 -127 -360 -11 0 -28 117 -36 233 -3 59 -9 107 -12 107
-3 -1 -25 -24 -48 -53 -24 -29 -61 -71 -83 -95 -21 -24 -42 -52 -45 -63 -4
-10 -10 -19 -15 -19 -5 0 -7 -7 -3 -15 8 -22 -17 -106 -30 -98 -6 3 -7 1 -3
-6 10 -16 -60 -160 -95 -193 -16 -16 -26 -28 -22 -28 10 0 -86 -88 -146 -133
-33 -24 -56 -36 -59 -29 -2 7 -8 12 -14 12 -6 0 -8 -6 -5 -14 4 -10 -4 -17
-25 -21 -23 -6 -27 -9 -17 -17 10 -7 5 -8 -16 -4 -21 5 -26 4 -15 -3 17 -11
21 -9 -79 -41 -35 -11 -67 -17 -72 -14 -5 3 -9 1 -9 -3 0 -10 -119 -37 -128
-29 -3 3 0 6 7 6 30 0 213 139 273 206 66 76 124 161 115 171 -6 6 -43 -16
-75 -44 -14 -13 -31 -23 -38 -23 -8 0 -14 -5 -14 -11 0 -6 -7 -8 -16 -5 -8 3
-13 2 -10 -3 14 -22 -223 -115 -265 -104 -14 4 -20 2 -15 -5 6 -11 -90 -29
-126 -23 -10 1 -18 -3 -18 -8 0 -6 -20 -11 -46 -11 l-47 0 65 48 c35 26 84 69
109 97 24 27 50 56 56 63 7 7 29 38 49 68 20 29 43 54 51 54 10 0 14 6 10 20
-3 13 -1 18 6 13 6 -4 8 0 4 10 -3 10 -2 17 2 17 5 0 7 10 3 22 -3 13 -1 19 5
15 6 -4 10 -1 10 6 -2 20 15 87 22 87 3 0 6 12 6 28 1 15 4 37 9 50 11 31 -6
28 -26 -6 -31 -52 -75 -95 -88 -87 -9 5 -11 4 -6 -4 5 -7 -8 -27 -31 -49 -38
-37 -107 -92 -117 -92 -2 0 6 19 19 43 12 24 26 54 30 67 10 31 27 48 44 42
10 -3 11 0 2 16 -6 11 -11 27 -10 34 0 9 2 9 6 -2 4 -8 13 -21 22 -30 13 -13
14 -13 8 3 -4 10 -7 28 -7 38 0 13 -4 18 -12 13 -8 -5 -9 0 -4 17 17 52 25
150 25 289 -1 190 -1 198 -16 193 -22 -9 -15 16 41 133 61 127 100 172 220
252 91 61 205 109 316 133 128 28 343 21 463 -15z m-1546 -21 c90 -27 183
-133 183 -208 0 -24 -4 -27 -31 -27 -116 0 -209 -92 -209 -207 0 -43 -56 -85
-122 -91 -141 -13 -263 128 -243 281 10 68 25 97 77 142 l43 36 3 -50 c2 -28
6 -51 10 -51 5 0 14 21 20 47 22 80 101 138 193 142 14 1 48 -6 76 -14z
m-2189 -163 c54 -43 139 -105 190 -138 50 -32 91 -61 91 -64 0 -3 -35 -25 -78
-48 -44 -24 -102 -61 -129 -82 l-51 -37 -63 11 -63 11 -3 213 c-1 116 0 212 3
212 3 0 49 -35 103 -78z m-1228 9 c0 -11 -78 -26 -87 -17 -4 3 5 6 18 6 13 0
31 5 39 10 19 12 30 13 30 1z m3611 -172 c67 -23 66 -36 -3 -41 -40 -4 -77
-14 -100 -28 l-38 -22 0 29 c0 59 65 87 141 62z m-2095 -181 c-1 -13 -12 -43
-23 -68 -48 -101 -64 -140 -94 -235 -17 -55 -35 -104 -39 -108 -4 -5 -13 13
-19 39 -19 75 -111 197 -173 230 -45 24 -32 32 41 26 85 -6 110 0 152 35 24
21 125 87 156 102 1 1 1 -9 -1 -21z m1962 -53 c29 -13 34 -18 22 -25 -8 -5
-29 -10 -45 -10 -17 0 -41 -7 -53 -16 -13 -9 -26 -14 -29 -10 -12 11 9 57 30
66 31 12 33 12 75 -5z m-420 -71 c15 -4 21 -12 18 -21 -3 -8 -1 -11 4 -8 6 3
10 -1 10 -10 0 -9 4 -14 9 -11 13 8 23 -23 16 -48 -4 -14 -3 -17 3 -8 7 10 11
10 22 -3 10 -12 10 -15 -1 -15 -8 0 -5 -6 6 -14 19 -14 19 -15 -5 -63 -21 -42
-25 -63 -26 -162 -1 -68 2 -108 7 -100 7 11 9 10 9 -4 0 -9 22 -40 48 -67 l48
-50 -40 0 c-91 0 -243 105 -292 201 -13 27 -21 49 -17 49 5 0 3 4 -3 8 -15 10
-30 57 -15 48 17 -11 13 20 -4 34 -8 7 -15 19 -15 26 0 8 -5 14 -11 14 -5 0
-7 5 -3 12 4 6 7 31 5 54 -1 33 3 45 19 57 11 7 17 16 14 19 -5 6 43 44 61 48
6 1 15 4 20 6 6 2 26 5 45 7 19 2 37 4 40 5 3 1 15 -1 28 -4z m-3368 -115 c7
-11 10 -23 8 -25 -5 -5 -105 -24 -124 -24 -26 0 -14 30 19 50 42 26 83 26 97
-1z m171 -158 l24 -19 -25 -6 c-14 -2 -50 -7 -80 -11 l-55 -5 33 30 c37 35 70
38 103 11z m3825 -71 c-19 -60 -50 -131 -82 -185 -20 -35 -28 -42 -38 -32 -11
9 -7 19 19 52 36 44 75 118 95 178 6 21 14 37 16 35 2 -2 -3 -24 -10 -48z
m-981 -78 c-5 -14 -7 -14 -15 -2 -6 8 -9 24 -9 35 1 16 2 16 9 -5 7 -22 8 -21
11 15 2 39 2 39 6 7 3 -19 2 -41 -2 -50z"/>
<path d="M4486 8664 c-3 -9 -2 -12 5 -9 5 4 18 1 27 -6 13 -11 12 -8 -2 9 -23
26 -22 26 -30 6z"/>
<path d="M4396 8593 c-14 -51 -17 -83 -7 -83 6 0 8 8 5 18 -2 9 1 7 7 -5 7
-13 20 -23 31 -23 26 0 22 14 -8 31 -22 11 -25 18 -21 46 6 35 2 45 -7 16z"/>
<path d="M4580 8523 c0 -5 5 -14 12 -21 7 -7 8 -12 2 -12 -5 0 -15 5 -21 11
-8 8 -14 5 -22 -10 -13 -23 -6 -26 37 -15 16 5 22 13 20 27 -3 20 -28 38 -28
20z"/>
<path d="M4441 8452 c-13 -25 -14 -32 -2 -32 9 0 23 41 16 48 -2 2 -8 -5 -14
-16z"/>
<path d="M4500 8430 c-13 -8 -12 -10 3 -10 9 0 17 5 17 10 0 12 -1 12 -20 0z"/>
<path d="M2681 6608 c0 -7 4 -22 8 -32 7 -18 8 -18 14 -3 7 20 -1 47 -14 47
-5 0 -9 -6 -8 -12z"/>
<path d="M6846 6046 c3 -8 0 -17 -7 -22 -8 -4 -10 -3 -5 4 13 21 -12 13 -44
-14 -18 -16 -29 -33 -26 -41 3 -8 2 -12 -3 -9 -11 7 -27 -13 -35 -44 l-6 -25
13 25 c13 27 41 29 51 4 4 -12 1 -14 -14 -9 -16 5 -19 3 -13 -12 3 -10 12 -22
20 -26 7 -4 13 -15 13 -22 0 -8 5 -15 11 -15 6 0 8 -7 5 -16 -10 -26 4 -62 32
-80 21 -14 24 -14 14 -2 -17 21 -14 112 3 98 12 -10 15 -3 28 70 2 9 6 21 11
28 4 6 4 17 0 24 -4 7 -3 8 4 4 8 -5 11 1 10 18 -1 13 -6 22 -10 20 -4 -3 -8
2 -8 11 0 10 -5 13 -12 9 -7 -4 -10 -4 -6 1 8 9 -9 35 -23 35 -5 0 -6 -6 -3
-14z"/>
<path d="M6911 6034 c0 -11 3 -14 6 -6 3 7 2 16 -1 19 -3 4 -6 -2 -5 -13z"/>
<path d="M7135 5900 c-6 -18 -9 -19 -23 -8 -13 11 -14 11 -8 0 6 -9 3 -12 -9
-10 -10 2 -23 -8 -32 -22 -13 -21 -13 -22 0 -7 20 23 30 22 15 -3 -7 -11 -21
-19 -30 -18 -18 3 -78 -49 -78 -66 1 -6 12 2 25 19 20 24 27 27 37 17 11 -11
9 -12 -6 -6 -15 6 -18 4 -13 -9 3 -8 1 -18 -6 -21 -7 -2 -2 -5 11 -5 19 -1 22
-5 18 -23 -3 -13 -3 -17 0 -10 3 6 10 10 15 6 5 -3 9 4 9 15 0 14 5 19 14 15
20 -8 57 32 49 52 -5 13 -3 15 7 9 8 -5 11 -4 6 3 -3 6 -2 13 4 17 5 3 10 11
10 18 0 6 -6 3 -13 -7 -13 -17 -14 -18 -20 -2 -4 9 -3 15 2 12 9 -6 35 43 27
51 -2 2 -7 -5 -11 -17z"/>
<path d="M7482 5805 c-17 -8 -32 -20 -31 -27 0 -10 2 -10 6 0 2 6 12 12 20 12
9 0 13 -6 10 -14 -3 -8 1 -17 9 -20 9 -3 12 -1 9 4 -3 6 2 10 12 10 14 0 15 2
4 9 -8 5 -9 10 -2 12 5 2 7 9 3 16 -5 8 -15 8 -40 -2z"/>
<path d="M7470 5735 c0 -8 2 -15 4 -15 2 0 6 7 10 15 3 8 1 15 -4 15 -6 0 -10
-7 -10 -15z"/>
<path d="M6919 5723 c-13 -16 -12 -17 4 -4 9 7 17 15 17 17 0 8 -8 3 -21 -13z"/>
<path d="M6821 5723 c0 -4 4 -17 9 -28 8 -19 9 -19 9 2 1 12 -3 25 -9 28 -5 3
-10 3 -9 -2z"/>
<path d="M6852 5700 c0 -14 2 -19 5 -12 2 6 2 18 0 25 -3 6 -5 1 -5 -13z"/>
<path d="M6943 5685 c-3 -9 -3 -19 1 -22 7 -7 36 16 36 28 0 15 -30 10 -37 -6z"/>
<path d="M7042 5665 c0 -16 2 -22 5 -12 2 9 2 23 0 30 -3 6 -5 -1 -5 -18z"/>
<path d="M7066 5658 c-7 -29 -8 -53 0 -46 7 8 17 68 11 68 -3 0 -7 -10 -11
-22z"/>
<path d="M7257 5662 c-9 -2 -15 -8 -12 -13 4 -5 -1 -9 -10 -9 -8 0 -18 -7 -21
-15 -4 -8 -9 -13 -13 -10 -4 2 -8 -2 -8 -10 0 -9 5 -11 16 -6 9 5 21 7 27 4 6
-2 17 3 24 12 7 8 18 15 24 15 7 0 12 8 13 18 2 19 -6 21 -40 14z m-12 -42 c3
-5 2 -10 -4 -10 -5 0 -13 5 -16 10 -3 6 -2 10 4 10 5 0 13 -4 16 -10z"/>
<path d="M7443 5628 c-6 -7 -13 -21 -16 -31 -8 -21 -34 -17 -29 4 2 8 1 11 -3
7 -12 -12 -17 -158 -6 -158 6 0 11 8 11 17 0 25 21 2 23 -26 3 -38 15 -22 19
27 2 26 -1 50 -6 54 -8 5 -7 8 1 8 8 0 10 13 7 38 -3 28 -2 32 5 17 5 -11 10
-33 11 -50 l2 -30 10 29 c8 21 7 30 -2 36 -7 4 -13 22 -14 39 -1 36 -1 35 -13
19z"/>
<path d="M7081 5583 c-1 -12 -7 -23 -13 -26 -9 -3 -10 -8 -3 -15 6 -7 16 -8
24 -3 10 7 11 15 3 37 -9 25 -11 26 -11 7z"/>
<path d="M7165 5560 c-3 -6 -14 -9 -22 -8 -9 2 -18 -4 -20 -12 -4 -12 -3 -12
5 -1 7 9 12 10 16 2 5 -8 12 -6 23 4 8 9 13 18 10 21 -3 3 -8 0 -12 -6z"/>
<path d="M7192 5550 c0 -14 2 -19 5 -12 2 6 2 18 0 25 -3 6 -5 1 -5 -13z"/>
<path d="M6701 5454 c0 -11 3 -14 6 -6 3 7 2 16 -1 19 -3 4 -6 -2 -5 -13z"/>
<path d="M6716 5424 c-8 -21 -8 -34 2 -34 4 0 8 11 8 25 2 29 -1 32 -10 9z"/>
<path d="M7363 5425 c0 -8 4 -15 9 -15 4 0 8 7 8 15 0 8 -4 15 -8 15 -5 0 -9
-7 -9 -15z"/>
<path d="M7405 5360 c3 -5 8 -10 11 -10 2 0 4 5 4 10 0 6 -5 10 -11 10 -5 0
-7 -4 -4 -10z"/>
<path d="M6280 6271 c0 -30 4 -41 13 -38 14 5 13 55 -3 71 -7 7 -10 -3 -10
-33z"/>
<path d="M5881 5574 c0 -11 3 -14 6 -6 3 7 2 16 -1 19 -3 4 -6 -2 -5 -13z"/>
<path d="M5862 5380 c0 -19 2 -27 5 -17 2 9 2 25 0 35 -3 9 -5 1 -5 -18z"/>
<path d="M5830 5375 c-10 -12 -10 -15 4 -15 9 0 16 7 16 15 0 8 -2 15 -4 15
-2 0 -9 -7 -16 -15z"/>
<path d="M6209 8493 c-12 -16 -12 -17 2 -6 9 7 20 9 24 5 5 -4 5 -1 1 6 -9 16
-11 15 -27 -5z"/>
<path d="M5150 8496 c0 -2 7 -7 16 -10 8 -3 12 -2 9 4 -6 10 -25 14 -25 6z"/>
<path d="M6030 8379 c0 -5 5 -7 10 -4 6 3 10 8 10 11 0 2 -4 4 -10 4 -5 0 -10
-5 -10 -11z"/>
<path d="M5975 8330 c6 -10 4 -12 -11 -6 -15 6 -17 5 -6 -5 9 -9 15 -10 23 -2
8 8 7 13 -2 18 -8 6 -10 4 -4 -5z"/>
<path d="M5625 8280 c-3 -5 1 -10 9 -10 9 0 16 5 16 10 0 6 -4 10 -9 10 -6 0
-13 -4 -16 -10z"/>
<path d="M6010 8220 c0 -5 5 -10 10 -10 6 0 10 5 10 10 0 6 -4 10 -10 10 -5 0
-10 -4 -10 -10z"/>
<path d="M2331 7980 c-59 -13 -125 -53 -158 -98 -15 -20 -39 -49 -54 -65 -98
-100 -79 -282 37 -372 109 -83 211 -85 344 -6 8 5 34 17 58 27 118 49 180 215
124 335 -29 61 -40 73 -108 114 -116 69 -162 81 -243 65z m191 -101 c58 -35
78 -53 96 -89 63 -125 -11 -280 -134 -280 -34 0 -42 -3 -38 -15 10 -25 -54
-55 -117 -55 -75 0 -134 31 -176 93 -53 79 -54 186 -3 232 20 18 20 18 20 -7
0 -13 7 -33 15 -44 14 -18 15 -16 10 26 -9 69 24 127 95 163 79 41 135 35 232
-24z"/>
<path d="M2503 7831 c14 -38 29 -40 25 -4 -2 16 -10 29 -20 31 -15 3 -15 -1
-5 -27z"/>
<path d="M4491 7902 c-1 -8 -9 -10 -27 -6 -45 11 -164 -51 -164 -86 0 -25 26
-32 155 -43 22 -2 30 -7 29 -20 -1 -12 2 -15 10 -8 12 10 84 -15 72 -26 -3 -4
-12 -1 -18 5 -7 7 -17 12 -22 12 -22 -1 29 -30 52 -30 15 0 21 -4 16 -12 -5
-8 -2 -9 9 -5 10 4 16 2 14 -6 -1 -7 6 -11 15 -9 13 2 16 -2 12 -15 -4 -11 -2
-14 3 -7 4 6 16 13 26 17 55 20 -41 172 -135 211 -20 9 -38 21 -41 28 -4 10
-6 11 -6 0z"/>
<path d="M4685 7800 c-3 -5 -1 -10 4 -10 6 0 11 5 11 10 0 6 -2 10 -4 10 -3 0
-8 -4 -11 -10z"/>
<path d="M5765 7741 c-71 -7 -155 -50 -193 -98 -24 -29 -27 -30 -39 -15 -12
15 -13 14 -3 -6 6 -13 9 -30 6 -38 -3 -8 0 -13 7 -11 7 1 11 -4 10 -10 -4 -16
9 -17 25 -1 9 9 12 9 12 0 0 -8 9 -10 26 -6 20 5 25 4 19 -5 -5 -9 0 -12 16
-9 12 1 24 9 27 16 2 8 -2 10 -14 5 -12 -4 -15 -3 -10 5 13 21 36 13 36 -12 0
-32 14 -40 41 -25 15 8 19 8 15 0 -4 -6 -2 -11 3 -11 6 0 11 7 11 15 0 9 9 15
24 15 34 0 57 10 50 22 -4 6 2 8 12 6 11 -2 19 -8 19 -15 0 -21 13 -25 37 -12
12 7 30 12 38 11 9 -2 26 8 39 22 l23 24 -26 23 c-15 13 -24 29 -21 37 2 7 1
11 -3 8 -4 -2 -27 9 -51 25 -24 16 -51 29 -60 29 -14 0 -14 2 -1 10 17 11 24
11 -75 1z m151 -146 c17 -13 16 -14 -16 -3 -43 14 -49 18 -24 18 11 0 29 -7
40 -15z m-276 -19 c0 -2 -9 -6 -20 -9 -11 -3 -18 -1 -14 4 5 9 34 13 34 5z"/>
<path d="M4350 7590 c8 -5 20 -10 25 -10 6 0 3 5 -5 10 -8 5 -19 10 -25 10 -5
0 -3 -5 5 -10z"/>
<path d="M4185 7580 c-8 -13 5 -13 25 0 13 8 13 10 -2 10 -9 0 -20 -4 -23 -10z"/>
<path d="M4245 7570 c-3 -5 -1 -10 4 -10 6 0 11 5 11 10 0 6 -2 10 -4 10 -3 0
-8 -4 -11 -10z"/>
<path d="M2900 7557 c-48 -15 -184 -155 -206 -212 -40 -106 4 -232 104 -291
86 -52 168 -52 252 -1 19 12 46 23 59 25 97 13 180 134 168 248 -10 96 -59
159 -171 218 -54 29 -139 34 -206 13z m140 -47 c48 -14 79 -38 62 -49 -10 -6
-10 -13 0 -37 l12 -29 4 33 c4 37 10 39 45 12 38 -30 61 -99 54 -162 -7 -59
-28 -92 -78 -126 -29 -20 -41 -23 -89 -17 -50 6 -53 5 -35 -8 18 -14 18 -15
-15 -36 -74 -45 -176 -16 -233 65 -40 56 -46 117 -18 178 20 46 41 54 41 16 0
-10 5 -22 10 -25 6 -4 10 10 10 35 0 70 37 121 107 146 46 16 77 17 123 4z"/>
<path d="M3987 7550 c3 -11 0 -20 -6 -20 -6 0 -11 5 -11 12 0 6 -3 8 -7 4 -4
-4 2 -15 14 -24 11 -9 24 -28 28 -42 4 -18 3 -21 -3 -11 -8 12 -11 11 -15 -5
-3 -13 -4 -12 -2 4 1 12 -1 22 -6 22 -4 0 -9 -10 -11 -22 -2 -14 -9 -22 -18
-20 -11 3 -12 0 -4 -8 10 -10 30 -17 58 -19 4 -1 6 -10 3 -21 -3 -12 -1 -18 5
-14 7 5 8 -5 4 -27 -3 -19 -8 -53 -10 -76 -2 -22 -8 -63 -14 -90 -15 -65 -21
-158 -11 -141 6 9 9 7 9 -9 0 -17 -4 -21 -17 -16 -16 6 -17 5 -2 -9 8 -8 27
-15 41 -15 25 0 27 3 33 56 22 196 77 300 187 355 68 34 128 34 196 0 29 -14
52 -29 52 -34 0 -4 -23 -10 -51 -12 -173 -17 -275 -277 -183 -466 50 -101 143
-139 232 -93 39 20 111 91 132 132 23 41 39 210 29 291 -14 114 -94 255 -158
279 -21 8 -23 12 -11 20 13 9 13 10 0 8 -8 -1 -30 2 -48 6 -25 6 -30 10 -20
17 9 7 7 8 -7 4 -11 -3 -59 -7 -107 -8 -47 -2 -84 -7 -81 -12 3 -4 -4 -5 -16
-1 -15 5 -19 3 -16 -7 4 -11 -3 -13 -30 -10 -19 2 -35 0 -35 -5 0 -5 -20 -10
-45 -10 -25 0 -45 4 -45 9 0 5 -4 6 -10 3 -6 -4 -10 5 -10 19 0 14 -4 26 -9
26 -5 0 -7 -9 -4 -20z m511 -270 c41 -39 21 -118 -34 -134 -36 -11 -74 28 -74
75 0 69 61 103 108 59z"/>
<path d="M5570 7536 c0 -2 7 -7 16 -10 8 -3 12 -2 9 4 -6 10 -25 14 -25 6z"/>
<path d="M4516 7505 c4 -8 10 -12 15 -9 11 6 2 24 -11 24 -5 0 -7 -7 -4 -15z"/>
<path d="M5948 7273 c7 -3 16 -2 19 1 4 3 -2 6 -13 5 -11 0 -14 -3 -6 -6z"/>
<path d="M5865 7248 c5 -13 -7 -16 -87 -20 -134 -7 -228 -56 -318 -166 -32
-40 -45 -50 -53 -40 -6 9 -7 8 -3 -5 3 -11 -6 -34 -24 -59 -21 -29 -28 -47
-24 -64 4 -16 2 -24 -6 -24 -7 0 -3 -9 9 -19 32 -27 21 -60 -17 -53 -26 4 -26
4 -7 -11 10 -8 25 -13 32 -10 7 3 15 -2 19 -10 3 -9 13 -13 26 -9 14 3 19 1
14 -6 -4 -7 -2 -12 4 -12 6 0 10 6 9 13 -4 31 3 37 44 39 l42 1 -37 4 c-30 3
-38 8 -38 25 0 18 5 20 44 16 26 -3 53 0 67 8 22 12 20 13 -30 14 -43 0 -52 3
-47 15 3 10 -1 15 -12 16 -11 0 -13 2 -4 6 7 3 21 -2 31 -11 14 -13 28 -15 62
-10 l44 7 -35 16 -35 15 35 5 c26 5 35 11 35 26 0 11 -3 25 -8 31 -5 8 6 15
33 22 22 5 40 6 40 1 0 -12 71 -11 90 1 8 5 19 5 25 1 13 -11 69 -21 58 -11
-4 5 -19 10 -33 13 -21 4 -20 4 7 6 17 0 44 -4 60 -10 l28 -11 -27 -10 c-17
-6 -25 -14 -21 -24 4 -11 -4 -13 -36 -10 -36 4 -40 2 -31 -14 5 -9 7 -20 3
-23 -3 -4 9 -2 27 3 18 5 37 7 41 4 5 -3 9 4 9 15 0 12 6 21 13 21 8 0 7 4 -3
11 -12 8 -12 9 5 7 11 -1 26 1 34 6 10 7 12 6 6 -4 -6 -10 -4 -12 8 -7 10 3
17 3 17 -2 0 -5 7 -8 16 -7 9 0 19 -5 21 -12 3 -7 -1 -10 -9 -7 -9 4 -14 -2
-15 -15 -1 -11 3 -20 8 -20 6 0 7 5 4 10 -3 6 1 10 9 10 10 0 13 -6 10 -15 -5
-11 -2 -13 10 -9 26 10 18 -19 -10 -40 -24 -17 -56 -19 -114 -5 -9 3 -16 -5
-18 -21 -2 -23 -1 -24 11 -7 17 20 27 22 27 5 0 -9 17 -13 54 -13 40 0 52 3
45 12 -7 7 -6 14 2 19 7 4 15 2 17 -4 2 -7 8 -12 14 -12 6 0 8 6 5 14 -9 23 5
27 27 7 15 -13 27 -16 41 -11 18 8 18 9 -5 9 -18 1 -21 4 -11 10 7 5 11 13 8
18 -3 5 11 20 31 33 71 47 93 68 77 74 -8 3 -13 11 -11 18 1 7 1 9 -2 5 -6
-11 -42 23 -42 40 0 7 -5 13 -11 13 -6 0 -9 7 -5 15 3 8 0 14 -7 12 -7 -1 -11
4 -9 11 1 6 -1 11 -5 10 -13 -2 -43 14 -39 21 3 4 -20 20 -50 36 -30 16 -54
35 -54 42 0 17 -38 36 -57 29 -9 -4 -24 1 -35 11 -16 14 -18 14 -13 1z m-142
-245 c-7 -2 -21 -2 -30 0 -10 3 -4 5 12 5 17 0 24 -2 18 -5z m-243 -83 c0 -5
-5 -10 -11 -10 -5 0 -7 5 -4 10 3 6 8 10 11 10 2 0 4 -4 4 -10z m-35 -70 c-3
-5 -12 -10 -18 -10 -7 0 -6 4 3 10 19 12 23 12 15 0z m-5 -52 c0 -3 -10 -4
-22 -1 -23 5 -23 5 -3 -10 11 -9 15 -17 8 -17 -6 0 -15 5 -18 10 -4 6 -11 7
-17 4 -6 -4 -5 2 1 15 7 12 9 27 5 33 -4 6 5 3 19 -8 15 -10 27 -22 27 -26z"/>
<path d="M5938 7253 c7 -3 16 -2 19 1 4 3 -2 6 -13 5 -11 0 -14 -3 -6 -6z"/>
<path d="M6412 7220 c0 -14 2 -19 5 -12 2 6 2 18 0 25 -3 6 -5 1 -5 -13z"/>
<path d="M5616 6982 c-7 -11 25 -36 49 -40 11 -1 44 6 73 15 39 13 48 19 35
24 -10 4 -25 3 -34 -2 -9 -5 -31 -4 -50 1 -41 12 -66 13 -73 2z m83 -18 c14
-13 -11 -12 -40 1 l-34 16 35 -7 c19 -3 37 -8 39 -10z"/>
<path d="M4700 6947 c-69 -24 -76 -101 -17 -179 47 -61 116 -101 173 -100 61
0 146 45 196 101 33 39 39 50 36 85 -3 33 -9 43 -37 60 -73 42 -269 61 -351
33z m222 -48 c20 -11 20 -12 4 -21 -19 -11 -133 -2 -155 11 -8 5 -10 14 -6 21
9 15 123 7 157 -11z"/>
<path d="M5903 6902 c-13 -2 -23 -8 -23 -14 0 -6 11 -8 24 -6 18 4 23 1 19 -9
-4 -11 1 -14 22 -11 32 3 47 28 18 28 -11 0 -23 4 -28 8 -6 4 -20 6 -32 4z"/>
<path d="M5616 6892 c-6 -10 80 -9 90 1 4 4 -13 7 -39 7 -25 0 -48 -3 -51 -8z"/>
<path d="M5715 6870 c3 -5 14 -10 23 -10 15 0 15 2 2 10 -20 13 -33 13 -25 0z"/>
<path d="M5781 6851 c-9 -6 -11 -16 -6 -27 5 -13 9 -15 12 -7 3 9 10 10 24 2
15 -8 21 -6 26 7 6 15 -11 34 -32 34 -5 0 -16 -4 -24 -9z"/>
<path d="M5320 6840 c0 -5 5 -10 11 -10 5 0 7 5 4 10 -3 6 -8 10 -11 10 -2 0
-4 -4 -4 -10z"/>
<path d="M6438 6843 c7 -3 16 -2 19 1 4 3 -2 6 -13 5 -11 0 -14 -3 -6 -6z"/>
<path d="M4115 6818 c14 -35 143 -84 190 -72 39 10 30 21 -22 29 -42 6 -83 19
-156 50 -13 5 -16 3 -12 -7z"/>
<path d="M5695 6780 l-20 -9 20 0 c11 0 27 4 35 9 13 9 13 10 0 9 -8 0 -24 -4
-35 -9z"/>
<path d="M5285 6661 c4 -15 -5 -27 -41 -52 -57 -39 -121 -59 -188 -59 -71 1
-117 19 -190 74 -7 5 -26 -1 -49 -17 -72 -49 -156 -44 -235 13 -65 47 -49 16
32 -64 66 -64 82 -88 146 -216 40 -80 84 -158 99 -173 109 -117 282 -76 390
92 41 63 85 187 101 279 11 65 14 73 31 69 27 -7 23 10 -10 44 -36 35 -97 42
-86 10z"/>
<path d="M5273 5315 c0 -8 4 -15 9 -15 4 0 8 4 8 9 0 6 -4 12 -8 15 -5 3 -9
-1 -9 -9z"/>
<path d="M5252 5200 c0 -14 2 -19 5 -12 2 6 2 18 0 25 -3 6 -5 1 -5 -13z"/>
<path d="M4337 5204 c-4 -4 -7 -14 -7 -23 0 -11 3 -12 11 -4 6 6 10 16 7 23
-2 6 -7 8 -11 4z"/>
<path d="M4364 5196 c-3 -8 -4 -23 -2 -33 3 -11 6 -6 9 15 6 34 2 42 -7 18z"/>
<path d="M4301 5174 c0 -11 3 -14 6 -6 3 7 2 16 -1 19 -3 4 -6 -2 -5 -13z"/>
<path d="M4312 5144 c-7 -8 -11 -25 -9 -37 4 -22 4 -22 6 1 0 13 6 20 11 17 6
-3 10 3 10 14 0 25 -1 25 -18 5z"/>
<path d="M4336 5125 c-3 -9 -6 -31 -6 -48 0 -24 -3 -28 -10 -17 -8 12 -10 12
-10 -5 0 -17 -2 -18 -11 -5 -9 13 -10 13 -6 0 5 -20 40 -20 49 0 4 10 7 5 7
-14 1 -16 4 -26 8 -22 9 8 4 96 -6 115 -6 10 -9 10 -15 -4z"/>
<path d="M5265 5120 c3 -5 8 -10 11 -10 2 0 4 5 4 10 0 6 -5 10 -11 10 -5 0
-7 -4 -4 -10z"/>
<path d="M4955 4914 c-219 -32 -437 -111 -517 -186 -28 -26 -30 -33 -26 -79 6
-59 46 -123 95 -151 30 -18 32 -18 82 2 65 25 64 25 57 -7 -41 -189 -58 -679
-32 -879 38 -293 90 -353 293 -341 54 3 120 13 146 22 55 20 53 7 18 140 -24
89 -57 326 -48 348 3 9 28 16 67 20 84 9 229 59 320 110 47 27 105 73 160 127
119 118 167 214 190 378 32 236 -82 400 -330 473 -63 18 -104 22 -260 24 -102
2 -198 1 -215 -1z m301 -289 c179 -53 193 -297 27 -463 -56 -57 -150 -107
-219 -118 -38 -6 -42 -4 -47 19 -7 24 7 360 19 494 5 54 11 73 23 76 38 11
151 6 197 -8z"/>
<path d="M2206 4869 c-129 -18 -234 -40 -441 -93 -74 -20 -173 -62 -212 -92
-76 -58 -79 -108 -12 -175 35 -35 44 -39 90 -39 l51 0 -6 -32 c-7 -40 -22
-179 -37 -343 -17 -177 -6 -553 20 -682 33 -171 59 -200 167 -189 70 7 206 47
266 77 35 18 36 20 27 51 -28 99 -61 286 -66 379 l-6 106 49 11 c27 6 89 16
138 22 119 15 162 33 175 73 15 50 23 142 15 182 -6 33 -9 36 -31 30 -32 -8
-301 -45 -327 -45 -20 0 -21 5 -18 92 3 121 22 309 33 329 6 12 40 20 131 33
145 19 244 20 373 4 107 -13 110 -11 153 56 50 80 66 196 33 237 -19 24 -22
24 -218 26 -151 1 -233 -3 -347 -18z"/>
<path d="M4222 4423 c-5 -10 -17 -43 -27 -73 -33 -102 -149 -310 -173 -310
-10 0 -92 147 -142 252 -23 47 -50 94 -61 104 -19 17 -23 17 -102 -6 -72 -20
-216 -86 -241 -110 -5 -5 -6 -19 -2 -33 7 -31 147 -262 214 -354 29 -39 52
-75 52 -81 0 -5 -30 -35 -67 -65 -138 -113 -263 -256 -263 -299 0 -50 69 -118
141 -138 25 -8 31 -4 67 43 22 29 76 92 121 140 45 48 92 99 103 112 24 28 43
32 51 11 11 -27 206 -263 233 -281 34 -22 71 -16 165 27 80 37 199 137 199
168 0 10 -12 23 -28 29 -45 19 -124 89 -200 178 -105 121 -103 116 -45 177
135 140 235 300 237 378 1 35 -4 45 -37 73 -37 32 -132 75 -168 75 -10 0 -22
-8 -27 -17z"/>
<path d="M6759 4423 c-14 -3 -18 -29 -23 -181 -12 -322 -36 -718 -62 -1026
l-6 -69 89 7 c48 4 124 15 168 24 l80 17 7 79 c4 43 9 84 11 90 2 6 36 9 93 7
103 -3 161 9 259 54 165 75 292 240 340 442 26 106 18 259 -17 334 -93 201
-335 266 -556 149 -48 -26 -53 -27 -65 -11 -23 32 -80 64 -136 77 -53 13 -147
17 -182 7z m552 -249 c100 -51 91 -324 -16 -481 -53 -79 -95 -106 -171 -111
-51 -4 -65 -1 -70 12 -5 14 50 499 62 539 14 47 135 72 195 41z"/>
<path d="M8185 4409 c-332 -48 -501 -304 -326 -492 40 -44 94 -78 228 -146
168 -85 210 -140 146 -191 -25 -20 -36 -22 -98 -17 -95 7 -173 39 -235 94 -46
41 -54 45 -75 35 -33 -15 -81 -84 -89 -127 -9 -44 9 -79 65 -129 89 -81 231
-122 394 -112 268 15 429 138 427 327 -1 128 -68 202 -281 314 -131 69 -191
114 -191 142 0 72 122 107 219 62 25 -11 62 -38 82 -61 46 -49 69 -47 135 14
99 91 79 190 -50 248 -98 45 -220 58 -351 39z"/>
<path d="M2960 4404 c-216 -40 -413 -239 -455 -459 -63 -325 84 -570 369 -616
74 -12 193 9 270 48 111 56 216 191 271 348 27 75 32 254 10 341 -37 151 -132
264 -265 315 -47 18 -158 30 -200 23z m106 -229 c34 -34 50 -76 64 -170 10
-67 10 -94 -4 -171 -31 -180 -87 -274 -162 -274 -74 0 -116 56 -136 182 -22
144 36 355 116 426 46 40 87 42 122 7z"/>
<path d="M6061 4394 c-82 -22 -149 -62 -222 -134 -75 -74 -127 -161 -161 -270
-19 -61 -23 -97 -23 -195 1 -136 15 -186 84 -293 115 -177 364 -232 574 -126
28 15 84 59 123 98 127 127 192 300 180 481 -8 137 -46 232 -129 322 -105 114
-269 159 -426 117z m179 -234 c41 -44 55 -108 54 -245 -1 -129 -17 -192 -69
-282 -57 -96 -147 -96 -198 1 -29 57 -36 234 -13 327 51 196 148 282 226 199z"/>
<path d="M7650 3278 c-279 -115 -519 -186 -750 -219 -113 -17 -367 -14 -521 5
-250 31 -260 26 -92 -48 349 -155 585 -194 843 -140 l25 5 -25 -21 c-67 -59
-313 -160 -475 -194 -240 -52 -518 -50 -790 6 -27 5 -149 14 -270 18 -121 5
-245 13 -275 19 -30 5 -102 10 -160 10 -162 1 -499 69 -458 92 25 14 190 29
320 29 64 0 119 4 122 9 3 5 -18 15 -47 21 -28 7 -72 21 -97 30 -52 21 -199
38 -418 47 -164 7 -187 17 -91 42 38 9 129 14 309 15 222 1 274 -2 400 -22
154 -25 376 -77 475 -113 77 -27 208 -33 213 -8 10 49 -435 216 -758 284 -313
66 -625 59 -1185 -24 -143 -22 -303 -45 -355 -53 -60 -8 -191 -13 -360 -13
-236 1 -277 3 -375 23 -147 31 -302 83 -404 138 -46 24 -86 42 -89 40 -8 -8
56 -82 106 -124 348 -288 1012 -482 1857 -542 221 -15 858 -30 1230 -27 297 2
356 -1 470 -18 163 -25 407 -25 578 -1 498 71 919 301 1129 616 59 89 102 177
90 183 -4 2 -81 -27 -172 -65z m-3160 -462 c0 -13 -34 -36 -53 -36 -29 0 -51
15 -43 29 7 10 96 16 96 7z"/>
</g>
</svg>
